<?xml version="1.0" encoding="utf-8"?>
<!-- Generator: Adobe Illustrator 25.2.1, SVG Export Plug-In . SVG Version: 6.00 Build 0)  -->
<svg version="1.1" id="Capa_1" xmlns="http://www.w3.org/2000/svg" xmlns:xlink="http://www.w3.org/1999/xlink" x="0px" y="0px"
	 viewBox="0 0 2000 849.23" style="enable-background:new 0 0 2000 849.23;" xml:space="preserve">
<style type="text/css">
	.st0{display:none;}
	.st1{fill:url(#SVGID_1_);}
	.st2{display:inline;fill:none;}
	.st3{display:inline;}
	.st4{font-family:'SouthGardensPersonalUse';}
	.st5{font-size:98.6804px;}
	.st6{letter-spacing:-22.06;}
</style>
<path d="M1914.7,485.41V411.6h-32.27v-3.44H1857v-21.43h-33.81v19.57h-25.84v74.97h-14.69v-73.11H1757v-20.87h-31.12v19.29h-27.3
	v89.46h-5.89v-10.62h-10.02v-36.62h-10.09v36.34h-2.62v-36.06h-10.09v36.34h-13.45v19.93h-3.28V260.58l-29.01-3v-11.72l-0.87-3.95
	l-1.58-0.25c-10.92-1.72-20.24,1.4-20.63,1.53l-1.68,0.57v8.53l-6.52,0.79v5.27l-31.54,3.26v17.21l-5.62,1.55v194.92h-2.3V142.12
	l-1.42-0.7c-2.7-1.33-7.81-2.49-10.64-3.08v-3.36l-1.97-0.38c-2.76-0.53-9.26-1.05-12.7-1.3v-6h-3.91v-3.8l-12.53,5.74v4.42
	c-0.23-0.01-0.45-0.01-0.68-0.01c-9.35,0-14.66,3.65-16.3,5.01c-6.67,1.6-11.28,4.51-11.48,4.64l-1.21,0.77v250.49h-4.42V262.12
	l-27.71-3.64l-5.21-2.72v-9.5l-1.92-3.42l-1.2-0.08c-8.42-0.54-18.32,1.55-18.74,1.64l-1.92,0.41v14.09l-31.62,3.82v176.56h-26.39
	v4.7h-1.81v7.04h-3.1v24.92h-11.75v-23.8h-1.47v-10.62h-19.38v9.88h-31.72V368h-12.47v-4.47h-12.04v5.31h-1.65v-5.42l-26.23-2.04
	v8.02h-3.26v77.79h-8.17v-19.69l-1.47-15.04h-23.73l-1.81,16.01l-0.02,20.22h-6.21v-37.92h-14.67v-7.81h-3.42v-4.19h-28.92v3.91
	h-3.18v5.32h-12.4V325.8l-5.84-60.6l-4.8,11.97H1093l-3.87-8.31l-2.52,8.38h-1.92l-7.15-16.35l-5.39,16.53h-15.18l-4.73-18.54
	l-8.57,61.8l-0.03,0.21v68.72h-3.68v-11.93h-16.94v11.74h-5.22v8.86l-0.98,2.12v14.27l-1.47,2.8v9.13l-0.41,0.77v16.82h-12.49v-3.89
	h-29.73l-2.46,1.66v-90.74h-2.04v-5.22h-5.54v-11.69h-9.4l-5.02-4.25l-5.02,4.25h-8.1v16.78h-2.14v-5.55h-6.85v-11.23h-2.61v-9.55
	h-7.17v-12.67h-4.83l-3.39-13.24l-3.92-21.76l-3.92,21.76l-3.39,13.24h-4.83v12.67h-7.17v9.55h-2.61v26.23h-12.39v31.87l-0.33,0.84
	l-2.52-1.77h-29.1v10l-6.33,3.74l-4.94-8.25l-6.99,10.85v16.46h-7.17v33.34h-5.96v-24.68l-1.39-3.89V376.3h-8.1v-14.04l-26.32-19.98
	h-10.42l-24.27,19.89v13.99h-7.07v20.2l-22.82-2.98l-31.62,1.49v7.49l-50.86,3.11v53.1h-16.3v4.47h-23.47v10.34h-31.64v-7.54h-19.63
	v8.39h-5.38v5.59h-10.35v47.26h-30.82v-60.76h-10.51v-12.76h-28.68l-11.26,2.53v12.48l-9.19,2.28v60.5h-16.32V489.9l-9.45-6.41
	v-4.05l-6.98-7.8l-3.94-10.51l-3.85,10.27l-9.92,7.66l-5.22-5.68h-13.62v-61.8l-49.49,0.43l-13.9,9.84v100.1l-22.82,10.16v34.46
	h-59.1v-62.16h-10.43v-8.57h-13.19v10.35h-3.11v-5.87h-14.82v4.1h-20.08v62.16h-31.6v-19.66h-5.87v-46.3l-16.11-14.87H68.54v-36.12
	H13.87V624.5h794.67c0.78-0.55,1.62-1.03,2.48-1.44c2.02-0.98,3.75-2.26,5.46-3.63c0.05-0.1,0.11-0.21,0.17-0.31H18.58v-164.1h45.25
	v36.12h31.19l13.07,12.05v49.12h5.87v19.66h41.03v-62.16h20.08v-4.1h5.4v5.87h12.53v-10.35h3.77v8.57h10.43v62.16h68.53V535.8
	l22.82-10.16V424.86l10.55-7.47l43.42-0.38v61.76h16.45l6.6,7.19l14.21-10.97l0.07-0.2l6.19,6.92v4.85l9.45,6.41v43.75h25.74v-61.54
	l9.19-2.28v-12.42l6.79-1.56h23.74v12.76h10.51v60.76h40.24v-47.26h10.35v-5.59h5.38v-8.39h10.2v7.54h41.06v-10.34h23.47v-4.47h16.3
	v-53.38l50.86-3.11v-7.43l26.74-1.26l27.71,3.62v-20.85h7.07v-16.61l21.08-17.27h7.49l23.03,17.48v16.54h8.1v48.43l1.38,3.88v29.01
	h15.39v-33.34h7.17V409.6l2.14-3.32l3.54,5.92l12.58-7.44v-7.89h23.06l5.96,4.2l2.93-7.5v-27.63h12.39V339.7h2.61v-9.55h7.17v-12.67
	h3.65l3.78-14.75l3.78,14.75h3.65v12.67h7.17v9.55h2.61v11.23h6.85v5.55h11.56V339.7h4.94l3.46-2.93l3.46,2.93h6.25v11.69h5.54v5.22
	h2.04v94.78l8.46-5.69h23.74v3.89h21.91v-20.71l0.41-0.77v-9.13l1.47-2.8v-14.43l0.98-2.12v-4.81h5.22v-11.74h7.52V395h5.05v8.57
	h8.05v-82.26l5.34-38.51h21.73l2.75-8.44l3.61,8.25h8.19l0.09-0.3l0.11,0.23h23.44l4.2,43.39v87.42h21.82v-5.32h3.18v-3.91h19.5
	v4.19h3.42v7.81h14.67v37.92h15.63v-25.09l1.26-11.14h15.39l0.97,9.81v24.93h17.59v-77.79h3.26v-7.64l16.81,1.31v5.77h11.07v-5.31
	h2.62v4.47h12.47v83.4h41.14v-9.88h9.96v10.62h1.47v23.8h21.17v-24.92h3.1v-7.04h1.81v-4.7h17.44v4.19h8.95V267.57l31.62-3.82
	v-14.42c2.98-0.52,8.95-1.4,14.36-1.25v11.14l8.65,4.51l24.28,3.19v133.02h13.84V147.32c1.72-0.92,5.15-2.53,9.43-3.5l0.61-0.15
	l0.47-0.45c0.05-0.05,5.35-5.01,16.63-4.06l2.53,0.21v-6.49l3.11-1.42v1.23h3.91v5.69l2.22,0.15c0.09,0.01,7.96,0.53,12.45,1.1v3.3
	l1.99,0.36c1.95,0.35,6.97,1.39,10.07,2.5v334.91h11.72V284.63l5.62-1.55v-16.53l31.54-3.26v-5.35l6.52-0.79v-9.26
	c2.78-0.7,8.69-1.84,15.34-1.1v15.72l29.01,3v245.23h12.7V490.8h13.45v-36.34h0.67v36.06h12.05v-36.34h0.67v36.62h10.02v10.62h15.31
	v-89.46h27.3v-19.29h21.7v20.87h25.67v73.11h24.11v-74.97h25.84v-19.57h24.38v21.43h25.43v3.44h32.27v73.81h60.39v128.32h-812.66
	c0.04,1.48,0.02,2.99-0.02,4.49c0.72,0.17,1.34,0.48,1.84,0.89h815.55V485.41H1914.7z"/>
<path class="st0" d="M124.67,1193.35v-132.59h44.69v28.25h26.53l13.05,10.53v37.32h5.25v15.38h32.48v-48.62h17.96v-3.21h9.04v4.59h7
	v-8.09h7.58v6.71h9.33v48.62h57.08v-27.62l20.41-7.95v-78.57l10.94-6.77l41.55-0.32v48.33H441l5.29,5.03l10.79-7.29l1.75-4.08
	l1.75,4.08l5.9,5.78v3.48l8.46,5.01v33.32h18.81v-47.73l8.22-1.78v-9.74l7.97-1.6h23.55v9.98h9.4v47.54h31.78v-36.97h9.26v-4.37
	h4.81v-6.56h13.34v5.9h32.51v-8.09h20.99v-3.5h14.58v-41.65l45.49-2.43v-5.84l26.1-1.08l22.6,2.58v-16.06h6.33v-11.97l20.28-14.53
	h8.01l22.07,14.65v11.96h7.24v39.58l1.24,3.04v21h9.55v-26.08h6.42v-14.29l4.08-5.54l3.79,5.54l8.46-4.37v-7h23.33l3.79,2.33
	l1.46-3.26v-23.27h11.08v-20.52h2.33v-7.47h6.42v-9.91H914l3.5-11.95l1.46-7.08l1.46,7.08l3.5,11.95h3.79v9.91h6.42v7.47h2.33v8.78
	h6.12v4.34h6.12v-13.13h5.83l3.79-2.81l3.79,2.81h7v9.15h4.96v4.08h1.82v72.57l4.88-2.87h23.91v3.04h15.38v-14.68l0.36-0.61v-7.14
	l1.31-2.19v-11.22l0.88-1.66v-5.34h4.67v-9.18h10.93v9.33h4.52v6.71h2.99v-62.41l6.2-39.07l2.04,7h16.62l3.64-9.77l4.81,9.62h4.52
	l1.17-3.39l1.78,3.34h19.5l1.68-3.67l4.38,39.6v66.4h15.31v-4.16h2.84v-3.06h21.65v3.28h3.06v6.11h13.12v29.67h9.77v-17.66
	l1.39-10.68h17.49l1.09,9.66v17.51h11.52V998h2.92v-6.12l19.25,1.31v4.38h5.69v-4.16h6.56v3.5h11.15v65.24h32.58v-7.73h13.12v8.31
	h1.31v18.62h14.72v-19.49h2.77v-5.51h1.62v-3.68h19.81v3.28h3.79V914.34l28.28-2.99v-11.17c0,0,8.89-1.66,16.25-1.25l0.8,1.25v8.17
	l6.2,2.83l23.25,2.67v103.83h8.16V820.86c0,0,4.16-2.32,10.13-3.5c0,0,5.16-4.51,16.4-3.68v-4.24l7-2.8v1.97h3.5v4.57
	c0,0,9.83,0.57,13.12,1.12v2.62c0,0,7.62,1.2,10.79,2.56v261.36h6.27V927.92l5.03-1.21v-13.2l28.21-2.55v-4.16l5.83-0.62v-7
	c0,0,8.14-2.42,17.57-1.13l0.37,1.46v10.83l25.95,2.34v191.66h7.14v-15.59h12.03v-28.43h4.81v28.21h6.56v-28.43h4.81v28.65h8.96
	v8.31h9.48v-69.98h24.42V1012h23.62v16.33h22.96v57.19h17.35v-58.65h23.11v-15.31h26.02v16.76h22.74v2.69h28.87v57.74h54.02v104.59
	H124.67z"/>
<linearGradient id="SVGID_1_" gradientUnits="userSpaceOnUse" x1="15.684" y1="374" x2="1976.9058" y2="374">
	<stop  offset="0" style="stop-color:#00A8DE"/>
	<stop  offset="0.2" style="stop-color:#333391"/>
	<stop  offset="0.4" style="stop-color:#E91388"/>
	<stop  offset="0.6" style="stop-color:#EB2D2E"/>
	<stop  offset="0.8" style="stop-color:#FDE92B"/>
	<stop  offset="1" style="stop-color:#009E54"/>
</linearGradient>
<path class="st1" d="M1916.51,485.41V411.6h-32.27v-3.44h-25.43v-21.43h-33.8v19.57h-25.84v74.97h-14.69v-73.11h-25.67v-20.87
	h-31.12v19.29h-27.3v89.46h-5.89v-10.62h-10.02v-36.62h-10.09v36.34h-2.62v-36.06h-10.09v36.34h-13.45v19.93h-3.28V260.58l-29.01-3
	v-11.72l-0.87-3.95l-1.58-0.25c-10.92-1.72-20.24,1.4-20.63,1.53l-1.68,0.57v8.53l-6.52,0.79v5.27l-31.54,3.26v17.21l-5.62,1.55
	v194.92h-2.3V142.12l-1.42-0.7c-2.7-1.33-7.81-2.49-10.64-3.08v-3.36l-1.97-0.38c-2.76-0.53-9.26-1.05-12.7-1.3v-6h-3.91v-3.8
	l-12.53,5.74v4.42c-0.23-0.01-0.45-0.01-0.68-0.01c-9.35,0-14.66,3.65-16.3,5.01c-6.67,1.6-11.28,4.51-11.48,4.64l-1.21,0.77v250.49
	h-4.42V262.12l-27.72-3.64l-5.21-2.72v-9.5l-1.92-3.42l-1.2-0.08c-8.42-0.54-18.32,1.55-18.74,1.64l-1.92,0.41v14.09l-31.62,3.82
	v176.56h-26.39v4.7h-1.81v7.04h-3.1v24.92h-11.75v-23.8h-1.47v-10.62h-19.38v9.88h-31.72V368h-12.47v-4.47h-12.04v5.31h-1.65v-5.42
	l-26.23-2.04v8.02h-3.26v77.79h-8.17v-19.69l-1.47-15.04h-23.73l-1.81,16.01l-0.02,20.22h-6.21v-37.92h-14.67v-7.81h-3.42v-4.19
	h-28.92v3.91h-3.18v5.32h-12.4V325.8l-5.84-60.6l-4.8,11.97h-18.88l-3.87-8.31l-2.52,8.38h-1.92l-7.15-16.35l-5.39,16.53h-15.18
	l-4.73-18.54l-8.57,61.8l-0.03,0.21v68.72h-3.68v-11.93h-16.94v11.74h-5.22v8.86l-0.98,2.12v14.27l-1.47,2.8v9.13l-0.41,0.77v16.82
	h-12.49v-3.89h-29.73l-2.46,1.66v-90.74h-2.04v-5.22h-5.54v-11.69h-9.4l-5.02-4.25l-5.02,4.25h-8.1v16.78h-2.14v-5.55h-6.85v-11.23
	h-2.61v-9.55h-7.17v-12.67h-4.83l-3.39-13.24l-3.92-21.76l-3.92,21.76l-3.39,13.24h-4.83v12.67h-7.17v9.55h-2.61v26.23h-12.39v31.87
	l-0.33,0.84l-2.52-1.77h-29.1v10l-6.33,3.74l-4.94-8.25l-6.99,10.85v16.46h-7.17v33.34h-5.96v-24.68l-1.38-3.89V376.3h-8.1v-14.04
	l-26.32-19.98H762.2l-24.27,19.89v13.99h-7.07v20.2l-22.82-2.98l-31.62,1.49v7.49l-50.86,3.11v53.1h-16.3v4.47h-23.47v10.34h-31.64
	v-7.54h-19.63v8.39h-5.38v5.59h-10.35v47.26h-30.82v-60.76h-10.51v-12.76h-28.68l-11.26,2.53v12.48l-9.19,2.28v60.5h-16.32V489.9
	l-9.45-6.41v-4.05l-6.98-7.8l-3.94-10.51l-3.85,10.27l-9.92,7.66l-5.22-5.68h-13.62v-61.8l-49.49,0.43l-13.9,9.84v100.1
	l-22.82,10.16v34.46h-59.1v-62.16h-10.43v-8.57H190.1v10.35h-3.11v-5.87h-14.82v4.1h-20.08v62.16h-31.6v-19.66h-5.87v-46.3
	L98.5,485.74H70.36v-36.12H15.68V624.5h1181.46c0.36-1.21,1.9-2.79-0.37-5.39c-0.08-0.86-390.44,0.81-390.13,0H20.39v-164.1h45.25
	v36.12h31.19l13.07,12.05v49.12h5.87v19.66h41.03v-62.16h20.08v-4.1h5.4v5.87h12.53v-10.35h3.77v8.57H209v62.16h68.53V535.8
	l22.82-10.16V424.86l10.55-7.47l43.42-0.38v61.76h16.45l6.6,7.19l14.21-10.97l0.07-0.2l6.19,6.92v4.85l9.45,6.41v43.75h25.74v-61.54
	l9.19-2.28v-12.42l6.79-1.56h23.74v12.76h10.51v60.76h40.24v-47.26h10.35v-5.59h5.38v-8.39h10.2v7.54h41.06v-10.34h23.47v-4.47h16.3
	v-53.38l50.86-3.11v-7.43l26.74-1.26l27.71,3.62v-20.85h7.07v-16.61l21.08-17.27h7.49l23.03,17.48v16.54h8.1v48.43l1.38,3.88v29.01
	h15.39v-33.34h7.17V409.6l2.14-3.32l3.54,5.92l12.58-7.44v-7.89h23.06l5.96,4.2l2.93-7.5v-27.63h12.39V339.7h2.61v-9.55h7.17v-12.67
	h3.65l3.78-14.75l3.78,14.75h3.65v12.67h7.17v9.55h2.61v11.23h6.85v5.55h11.56V339.7h4.94l3.46-2.93l3.46,2.93h6.25v11.69h5.54v5.22
	h2.04v94.78l8.46-5.69h23.74v3.89h21.91v-20.71l0.41-0.77v-9.13l1.47-2.8v-14.43l0.98-2.12v-4.81h5.22v-11.74h7.52V395h5.05v8.57
	h8.05v-82.26l5.34-38.51h21.73l2.75-8.44l3.61,8.25h8.19l0.09-0.3l0.11,0.23h23.44l4.2,43.39v87.42h21.82v-5.32h3.18v-3.91h19.5
	v4.19h3.42v7.81h14.67v37.92h15.63v-25.09l1.26-11.14h15.39l0.97,9.81v24.93h17.59v-77.79h3.26v-7.64l16.81,1.31v5.77h11.07v-5.31
	h2.62v4.47h12.47v83.4h41.14v-9.88h9.96v10.62h1.47v23.8h21.17v-24.92h3.1v-7.04h1.81v-4.7h17.44v4.19h8.95V267.57l31.62-3.82
	v-14.42c2.98-0.52,8.95-1.4,14.36-1.25v11.14l8.65,4.51l24.28,3.19v133.02h13.84V147.32c1.72-0.92,5.15-2.53,9.43-3.5l0.61-0.15
	l0.47-0.45c0.05-0.05,5.35-5.01,16.63-4.06l2.53,0.21v-6.5l3.11-1.42v1.23h3.91v5.69l2.22,0.15c0.09,0.01,7.96,0.53,12.45,1.1v3.3
	l1.99,0.36c1.95,0.35,6.97,1.39,10.07,2.5v334.91h11.72V284.63l5.62-1.55v-16.53l31.54-3.26v-5.35l6.52-0.79v-9.26
	c2.78-0.7,8.69-1.84,15.34-1.1v15.72l29.01,3v245.23h12.7V490.8h13.45v-36.34h0.67v36.06h12.04v-36.34h0.67v36.62h10.02v10.62h15.31
	v-89.46h27.3v-19.29h21.7v20.87h25.67v73.11h24.11v-74.97h25.84v-19.57h24.38v21.43h25.43v3.44h32.27v73.81h60.39v128.32h-775.41
	c1.04,1.54,1.16,3.7,0.37,5.39h779.76V485.41H1916.51z"/>
<g id="B__randon_Worobi" class="st0">
	<polygon class="st2" points="1357.85,630.29 674.17,628.25 674.79,512 1358.47,514.04 	"/>
	<text transform="matrix(0.8614 0 0 1 674.7417 604.4663)" class="st3"><tspan x="0" y="0" class="st4 st5">B</tspan><tspan x="134.6" y="0" class="st4 st5 st6">	</tspan><tspan x="141.44" y="0" class="st4 st5">randon Worobi</tspan></text>
</g>
</svg>
